<svg width="56" height="56" viewBox="0 0 56 56" fill="none" xmlns="http://www.w3.org/2000/svg">
<path d="M33.8947 56C31.4386 56 29.3509 55.0926 27.6316 53.2778C25.9123 51.463 25.0526 49.2593 25.0526 46.6667C25.0526 44.0741 25.9123 41.8704 27.6316 40.0556C29.3509 38.2407 31.4386 37.3333 33.8947 37.3333C36.3509 37.3333 38.4386 38.2407 40.1579 40.0556C41.8772 41.8704 42.7368 44.0741 42.7368 46.6667C42.7368 49.2593 41.8772 51.463 40.1579 53.2778C38.4386 55.0926 36.3509 56 33.8947 56ZM33.8947 49.7778C34.7298 49.7778 35.4298 49.4796 35.9947 48.8833C36.5596 48.287 36.8421 47.5481 36.8421 46.6667C36.8421 45.7852 36.5596 45.0463 35.9947 44.45C35.4298 43.8537 34.7298 43.5556 33.8947 43.5556C33.0596 43.5556 32.3596 43.8537 31.7947 44.45C31.2298 45.0463 30.9474 45.7852 30.9474 46.6667C30.9474 47.5481 31.2298 48.287 31.7947 48.8833C32.3596 49.4796 33.0596 49.7778 33.8947 49.7778ZM39.7895 34.2222C35.2702 34.2222 31.4386 32.563 28.2947 29.2444C25.1509 25.9259 23.5789 21.8815 23.5789 17.1111C23.5789 12.3407 25.1509 8.2963 28.2947 4.97778C31.4386 1.65926 35.2702 0 39.7895 0C44.3088 0 48.1404 1.65926 51.2842 4.97778C54.4281 8.2963 56 12.3407 56 17.1111C56 21.8815 54.4281 25.9259 51.2842 29.2444C48.1404 32.563 44.3088 34.2222 39.7895 34.2222ZM39.7895 28C42.6877 28 45.1316 26.95 47.1211 24.85C49.1105 22.75 50.1053 20.1704 50.1053 17.1111C50.1053 14.0519 49.1105 11.4722 47.1211 9.37222C45.1316 7.27222 42.6877 6.22222 39.7895 6.22222C36.8912 6.22222 34.4474 7.27222 32.4579 9.37222C30.4684 11.4722 29.4737 14.0519 29.4737 17.1111C29.4737 20.1704 30.4684 22.75 32.4579 24.85C34.4474 26.95 36.8912 28 39.7895 28ZM11.7895 46.6667C8.54737 46.6667 5.77193 45.4481 3.46316 43.0111C1.15439 40.5741 0 37.6444 0 34.2222C0 30.8 1.15439 27.8704 3.46316 25.4333C5.77193 22.9963 8.54737 21.7778 11.7895 21.7778C15.0316 21.7778 17.807 22.9963 20.1158 25.4333C22.4246 27.8704 23.5789 30.8 23.5789 34.2222C23.5789 37.6444 22.4246 40.5741 20.1158 43.0111C17.807 45.4481 15.0316 46.6667 11.7895 46.6667ZM11.7895 40.4444C13.4105 40.4444 14.7982 39.8352 15.9526 38.6167C17.107 37.3982 17.6842 35.9333 17.6842 34.2222C17.6842 32.5111 17.107 31.0463 15.9526 29.8278C14.7982 28.6093 13.4105 28 11.7895 28C10.1684 28 8.7807 28.6093 7.62632 29.8278C6.47193 31.0463 5.89474 32.5111 5.89474 34.2222C5.89474 35.9333 6.47193 37.3982 7.62632 38.6167C8.7807 39.8352 10.1684 40.4444 11.7895 40.4444Z" fill="#FFCC00"/>
</svg>
